<svg width="164" height="102" viewBox="0 0 164 102" fill="none" xmlns="http://www.w3.org/2000/svg">
<path d="M43.4652 66H53.131V0H44.5284L28 13.2378L33.1229 19.5731L43.4652 10.8739V66Z" fill="#333333"/>
<path d="M108 0H65.2774V7.75358H98.1409L72.43 66H83.0623L108 7.75358V0Z" fill="#333333"/>
<path d="M131.916 50.9291H129.31L125.797 63.1129H125.741L122.115 50.9291H118.971L115.288 63.1129H115.232L111.918 50.9291H109L113.645 65.6535H116.733L120.387 53.2966H120.444L124.183 65.6535H127.27L131.916 50.9291Z" fill="#333333"/>
<path d="M145.598 62.3333C144.946 62.8819 142.907 63.8058 141.15 63.8058C138.629 63.8058 136.392 61.8137 136.392 58.8976H146.702C146.702 54.1627 145.144 50.5827 140.329 50.5827C136.25 50.5827 133.559 53.6719 133.559 58.0315C133.559 62.8241 135.91 66 141.037 66C143.416 66 144.578 65.4226 145.598 65.0472V62.3333ZM136.392 56.8766C136.59 54.9711 137.666 52.7769 140.272 52.7769C142.567 52.7769 143.87 54.6247 143.87 56.8766H136.392Z" fill="#333333"/>
<path d="M150.262 65.6535H152.811V63.5748H152.868C153.576 64.6719 155.219 66 157.797 66C162.159 66 164 62.0735 164 58.0315C164 54.0761 161.961 50.5827 157.768 50.5827C155.247 50.5827 153.803 51.5932 152.981 52.9501H152.924V44H150.262V65.6535ZM161.167 58.2336C161.224 60.5433 160.034 63.8058 157.173 63.8058C154.171 63.8058 152.924 60.7743 152.924 58.3202C152.924 55.5774 154.312 52.7769 157.202 52.7769C160.091 52.7769 161.224 55.5774 161.167 58.2336Z" fill="#333333"/>
<path d="M0.727146 55.649C0.232687 56.981 0 58.5073 0 59.7838C0 63.2804 1.91967 66 5.52632 66C11.838 66 10.5873 57.6748 15.1247 57.6748C17.5097 57.6748 18.4404 59.8948 18.4404 61.4766C18.4404 62.8919 17.8587 64.557 17.4515 65.5005L20.1565 65.778C20.5928 64.5015 21 63.1694 21 61.8096C21 57.9245 19.2839 54.7332 14.9501 54.7332C8.26039 54.7332 9.16205 63.0584 5.26454 63.0584C3.14127 63.0584 2.55956 61.2269 2.55956 59.6728C2.55956 58.2298 2.82133 57.4528 3.40305 56.0375L0.727146 55.649Z" fill="#333333"/>
<path d="M20.651 50.8203L20.651 48.0453L10.7036 48.0453L20.651 39.4148L20.651 35.3632L9.94737 45.1869L0.349031 36.0847L0.349031 39.7755L9.27839 48.0453H0.349031L0.349031 50.8203L20.651 50.8203Z" fill="#333333"/>
<path d="M20.651 32.4495V29.6745L0.349031 29.6745L0.349031 32.4495L20.651 32.4495Z" fill="#333333"/>
<path d="M20.651 24.7537L20.651 13.8754H18.0914L18.0914 21.9786L0.349031 21.9786L0.349031 24.7537L20.651 24.7537Z" fill="#333333"/>
<path d="M20.651 10.8783L20.651 0H18.0914L18.0914 8.10323L0.349031 8.10323L0.349031 10.8783L20.651 10.8783Z" fill="#333333"/>
<path d="M9.55294 81.6667H5.80397V77.5556L3.19357 78.3889V81.6667H0V83.7778H3.19357V92.0556C3.19357 94.8889 4.85978 96.1667 7.55349 96.1667C8.38659 96.1667 9.19193 95.9444 9.7751 95.7778V93.5556C9.38632 93.8056 8.80314 94.0556 7.99781 94.0556C6.80369 94.0556 5.80397 93.1667 5.80397 91.5278V83.7778H9.55294V81.6667Z" fill="#333333"/>
<path d="M23.6788 92.6389C23.0401 93.1667 21.0407 94.0556 19.3189 94.0556C16.8474 94.0556 14.6535 92.1389 14.6535 89.3333H24.7619C24.7619 84.7778 23.2345 81.3333 18.5136 81.3333C14.5147 81.3333 11.8765 84.3056 11.8765 88.5C11.8765 93.1111 14.1814 96.1667 19.2078 96.1667C21.5405 96.1667 22.6791 95.6111 23.6788 95.25V92.6389ZM14.6535 87.3889C14.8479 85.5556 15.9032 83.4444 18.4581 83.4444C20.7074 83.4444 21.9849 85.2222 21.9849 87.3889H14.6535Z" fill="#333333"/>
<path d="M37.4713 81.8889C36.7215 81.5833 35.3608 81.3333 34.3055 81.3333C29.9733 81.3333 27.0852 84.4444 27.0852 88.75C27.0852 92.8056 30.0289 96.1667 34.3055 96.1667C35.2497 96.1667 36.4993 96.0833 37.5824 95.5833L37.388 93.25C36.5826 93.7778 35.4718 94.0556 34.5832 94.0556C31.223 94.0556 29.8623 91.2778 29.8623 88.75C29.8623 86.0556 31.5007 83.4444 34.4166 83.4444C35.2497 83.4444 36.2494 83.6389 37.2491 84.0556L37.4713 81.8889Z" fill="#333333"/>
<path d="M40.5909 95.8333H43.2013V89.2778C43.2013 85.8333 44.5342 83.4444 47.5057 83.4444C49.7828 83.5833 50.5048 85.1944 50.5048 88.5V95.8333H53.1152V87.4167C53.1152 83.6111 51.4768 81.3333 47.8111 81.3333C45.8394 81.3333 44.201 82.1944 43.2568 83.6944H43.2013V75H40.5909V95.8333Z" fill="#333333"/>
<path d="M57.5676 95.8333H60.178V89.2778C60.178 85.8333 61.5109 83.4444 64.4823 83.4444C66.7595 83.5833 67.4815 85.1944 67.4815 88.5V95.8333H70.0919V87.4167C70.0919 83.6111 68.4535 81.3333 64.7878 81.3333C62.8161 81.3333 60.9278 82.3056 60.1502 83.9167H60.0947V81.6667H57.5676V95.8333Z" fill="#333333"/>
<path d="M73.6001 88.75C73.6001 92.8056 76.5437 96.1667 80.8203 96.1667C85.0691 96.1667 88.0128 92.8056 88.0128 88.75C88.0128 84.4444 85.1247 81.3333 80.8203 81.3333C76.4882 81.3333 73.6001 84.4444 73.6001 88.75ZM76.3771 88.75C76.3771 86.0556 78.0155 83.4444 80.8203 83.4444C83.5973 83.4444 85.2358 86.0556 85.2358 88.75C85.2358 91.2778 83.875 94.0556 80.8203 94.0556C77.7378 94.0556 76.3771 91.2778 76.3771 88.75Z" fill="#333333"/>
<path d="M91.8542 95.8333H94.4646V75H91.8542V95.8333Z" fill="#333333"/>
<path d="M98.3058 88.75C98.3058 92.8056 101.249 96.1667 105.526 96.1667C109.775 96.1667 112.718 92.8056 112.718 88.75C112.718 84.4444 109.83 81.3333 105.526 81.3333C101.194 81.3333 98.3058 84.4444 98.3058 88.75ZM101.083 88.75C101.083 86.0556 102.721 83.4444 105.526 83.4444C108.303 83.4444 109.941 86.0556 109.941 88.75C109.941 91.2778 108.581 94.0556 105.526 94.0556C102.444 94.0556 101.083 91.2778 101.083 88.75Z" fill="#333333"/>
<path d="M128.751 81.6667H126.335V83.7778H126.279C125.502 82.25 124.113 81.3333 121.614 81.3333C117.337 81.3333 115.282 85.2222 115.282 88.8611C115.282 92.5278 117.282 95.8333 121.336 95.8333C123.141 95.8333 124.974 95.1111 126.085 93.6389H126.141V95.0278C126.141 98.0278 124.502 99.8889 121.753 99.8889C119.837 99.8889 118.643 99.5278 116.643 98.6111L116.365 101.028C118.643 101.806 119.948 102 121.447 102C126.529 102 128.751 99.5278 128.751 95.2222V81.6667ZM122.003 93.7222C119.559 93.7222 118.059 91.3889 118.059 88.7222C118.059 86.3056 119.365 83.4444 122.003 83.4444C124.78 83.4444 126.141 85.9722 126.141 88.9167C126.141 91.5556 124.447 93.7222 122.003 93.7222Z" fill="#333333"/>
<path d="M133.537 95.8333H136.147V81.6667H133.537V95.8333ZM136.314 75.5556H133.37V78.5H136.314V75.5556Z" fill="#333333"/>
<path d="M151.79 92.6389C151.152 93.1667 149.152 94.0556 147.431 94.0556C144.959 94.0556 142.765 92.1389 142.765 89.3333H152.874C152.874 84.7778 151.346 81.3333 146.625 81.3333C142.626 81.3333 139.988 84.3056 139.988 88.5C139.988 93.1111 142.293 96.1667 147.319 96.1667C149.652 96.1667 150.791 95.6111 151.79 95.25V92.6389ZM142.765 87.3889C142.96 85.5556 144.015 83.4444 146.57 83.4444C148.819 83.4444 150.096 85.2222 150.096 87.3889H142.765Z" fill="#333333"/>
<path d="M155.169 95.3889C156.363 96.0278 157.724 96.1667 159.057 96.1667C161.584 96.1667 164 94.7778 164 91.75C164 87.2222 157.863 88.0556 157.863 85.1667C157.863 84 159.029 83.4444 160.362 83.4444C160.973 83.4444 162.528 83.8056 163.111 84.1667L163.334 81.8889C162.306 81.5833 161.306 81.3333 160.084 81.3333C157.28 81.3333 155.086 82.75 155.086 85.6944C155.086 89.6667 161.223 89.4444 161.223 92.0278C161.223 93.5556 159.751 94.0556 158.557 94.0556C157.807 94.0556 156.335 93.7222 155.308 93.0556L155.169 95.3889Z" fill="#333333"/>
</svg>
